<?xml version="1.0" encoding="UTF-8" standalone="no"?>
<svg
   xmlns:dc="http://purl.org/dc/elements/1.1/"
   xmlns:cc="http://creativecommons.org/ns#"
   xmlns:rdf="http://www.w3.org/1999/02/22-rdf-syntax-ns#"
   xmlns:svg="http://www.w3.org/2000/svg"
   xmlns="http://www.w3.org/2000/svg"
   xmlns:sodipodi="http://sodipodi.sourceforge.net/DTD/sodipodi-0.dtd"
   xmlns:inkscape="http://www.inkscape.org/namespaces/inkscape"
   width="210mm"
   height="297mm"
   viewBox="0 0 210 297"
   version="1.1"
   id="svg8"
   inkscape:version="1.0.2 (1.0.2+r75+1)"
   sodipodi:docname="proud-papers.svg">
  <defs
     id="defs2">
    <rect
       x="51.103931"
       y="391.31448"
       width="387.65011"
       height="78.248592"
       id="rect4926" />
  </defs>
  <sodipodi:namedview
     id="base"
     pagecolor="#ffffff"
     bordercolor="#666666"
     borderopacity="1.0"
     inkscape:pageopacity="0.0"
     inkscape:pageshadow="2"
     inkscape:zoom="0.35991379"
     inkscape:cx="-326.24997"
     inkscape:cy="866.82735"
     inkscape:document-units="mm"
     inkscape:current-layer="layer1"
     inkscape:document-rotation="0"
     showgrid="false"
     inkscape:window-width="1920"
     inkscape:window-height="997"
     inkscape:window-x="0"
     inkscape:window-y="0"
     inkscape:window-maximized="1" />
  <metadata
     id="metadata5">
    <rdf:RDF>
      <cc:Work
         rdf:about="">
        <dc:format>image/svg+xml</dc:format>
        <dc:type
           rdf:resource="http://purl.org/dc/dcmitype/StillImage" />
        <dc:title></dc:title>
      </cc:Work>
    </rdf:RDF>
  </metadata>
  <g
     inkscape:label="Camada 1"
     inkscape:groupmode="layer"
     id="layer1">
    <g
       id="g4957"
       inkscape:export-xdpi="96"
       inkscape:export-ydpi="96">
      <circle
         style="fill:#d45500;fill-rule:evenodd;stroke-width:6;stroke:#7d002a;stroke-opacity:1;stroke-miterlimit:4;stroke-dasharray:none"
         id="path4074"
         cx="112.82864"
         cy="237.87946"
         r="275.91074" />
      <g
         id="g4072"
         transform="matrix(0.83956993,0,0,0.87940196,5.8927401,-101.22385)">
        <g
           id="g30"
           transform="matrix(0.0368173,0,0,-0.0368173,-220.48502,512.28264)">
          <path
             d="m 10027.4,1135.45 c -306.6,0 -756.95,0 -967.75,0 -210.8,0 -277.87,114.98 -258.71,229.97 0,0 105.4,-143.73 191.64,-57.5 86.24,86.24 268.29,421.61 488.68,421.61 220.38,0 344.94,-450.35 527.04,-450.35 182,0 220.3,172.47 220.3,172.47 0,0 105.4,-316.2 -201.2,-316.2 z m 5154.2,2024.17 c 344.4,-737.13 677.8,-1450.69 993.9,-2127.46 -88,20.12 -175.7,40.05 -263.1,59.98 -52.8,11.88 -105.4,23.67 -157.8,35.45 -104.8,23.19 -208.7,46.09 -311.6,68.8 -103,22.23 -205.1,44.17 -306.1,66.02 -101,21.66 -201.2,42.64 -300.1,63.15 -396.2,82.21 -775.7,157.04 -1135.8,219.99 -44.9,8.25 -89.7,15.62 -134,22.81 -44.5,7.28 -88.6,14.56 -132.3,21.75 -43.8,7.57 -87.3,13.51 -130.4,19.93 -43.1,6.32 -85.8,12.56 -128.3,18.78 -42.4,6.13 -84.6,10.45 -126.5,15.62 -20.8,2.59 -41.6,5.08 -62.3,7.57 -20.7,2.49 -41.4,5.17 -61.8,6.42 -41,3.35 -81.8,6.61 -122,9.77 -10.1,0.86 -20.1,1.63 -30.2,2.4 -10.2,0.48 -20.3,1.05 -30.4,1.53 -20.2,0.96 -40.3,1.92 -60.3,2.97 -320.5,16.2 -616.5,24.24 -885.3,21.08 -537.5,-7.09 -963.8,-65.06 -1250.8,-128.59 -36,-7.76 -69.9,-14.94 -101.8,-21.75 -31.5,-7.85 -61,-15.23 -88.3,-22.04 -27.4,-6.7 -52.7,-12.93 -75.8,-18.58 -22.9,-6.33 -43.6,-12.08 -62.1,-17.25 -74.2,-20.41 -113.4,-29.71 -114.3,-26.74 -1.7,-0.95 -12.5,12.37 -31.5,39.2 -9.5,13.31 -20.3,30.66 -36.1,49.05 -7.5,9.39 -15.7,19.65 -24.5,30.57 -4.4,5.37 -8.5,11.4 -13.71,16.77 -5.07,5.46 -10.34,11.02 -15.81,16.86 -10.92,11.5 -21.94,24.06 -34.4,36.61 -13.03,11.88 -26.73,24.43 -41.1,37.56 -6.9,6.89 -15.14,12.55 -23,18.87 -8.05,6.23 -16.19,12.65 -24.62,19.16 -8.05,6.81 -17.35,12.47 -26.45,18.6 -9.2,6.13 -18.59,12.26 -28.17,18.58 -39.48,23 -82.79,46.67 -132.33,63.72 -12.26,4.51 -25.1,8.05 -37.94,12.17 -12.84,3.93 -26.25,6.71 -39.57,10.26 -6.81,1.24 -13.65,2.58 -20.53,3.92 -3.44,0.58 -6.88,1.35 -10.35,1.92 l -12.91,1.82 c -4.97,0.77 -10.36,1.25 -15.59,1.82 -5.37,0.48 -10.91,0.67 -16.4,0.96 -2.76,0.19 -5.59,0.19 -8.37,0.38 -5.94,-0.09 -11.89,-0.19 -17.79,-0.28 -9.13,-0.2 -18.98,-0.2 -27.87,-0.87 -6.95,-0.48 -13.87,-0.96 -20.75,-1.44 -12.05,-1.72 -24.04,-2.77 -35.76,-4.88 -46.97,-8.14 -90.72,-22.23 -130.77,-39.09 -80.17,-33.93 -145.73,-77.52 -199.58,-118.53 -53.78,-41.3 -96.21,-80.4 -129.48,-112.97 -66.36,-65.35 -96.91,-103.87 -99.9,-101.57 0.11,-3.16 -39.5,-7.48 -115.64,-13.03 -76.15,-5.56 -188.83,-12.17 -334.87,-19.93 -292.08,-15.33 -717.61,-34.78 -1251.19,-57.2 -533.57,-22.52 -1175.2,-48.01 -1899.47,-75.61 -362.14,-13.51 -744.93,-27.69 -1145.2,-42.64 -429.72,-15.42 -878.21,-31.43 -1342.05,-48.1 344.85,625.03 707.77,1282.82 1082.41,1961.89 89.99,162.7 179.28,324.06 267.78,484.07 13.38,12.56 26.64,24.92 39.99,37.47 10.81,23.57 21.52,46.95 32.07,69.95 19.18,41.49 37.85,81.83 55.97,121.11 25.93,55.77 50.69,109.14 74.36,160.02 -51.28,-8.91 -102.47,-17.92 -153.44,-26.83 C 3602.19,2999.89 3079.99,2033.46 2604.13,1152.7 c 897.22,22.23 1716.08,42.54 2439.7,60.46 746.12,16.96 1394.02,31.81 1926.3,43.98 532.29,11.31 948.97,19.07 1232.59,22.9 141.82,1.92 250.38,2.78 323.49,2.68 73.12,-0.09 110.81,-1.24 110.86,-3.54 1.88,0 3.67,-6.8 7.12,-19.45 3.6,-12.55 8.68,-31.14 18.98,-52.99 10.25,-21.85 25.79,-47.24 50.54,-69.56 24.6,-22.23 58.59,-40.63 99.94,-49.54 20.61,-4.5 42.85,-6.9 66.24,-7.48 5.86,0 11.79,-0.09 17.76,-0.09 6.27,0.19 12.59,0.29 18.98,0.38 12.8,0.29 25.84,0.48 39.1,0.77 53.07,0.77 109.76,1.63 169.42,2.49 119.32,1.34 250.5,2.11 388.21,2.11 137.69,0 268.86,-0.77 388.25,-2.11 29.8,-0.38 58.84,-0.77 87.1,-1.15 14.19,-0.19 28.09,-0.39 41.79,-0.67 13,0.38 25.9,-0.1 38.3,1.25 50,3.06 94.4,18.1 129.1,40.72 34.8,22.71 58.7,53.66 75.1,83.17 16.4,29.9 25.6,58.54 31.6,82.31 11.9,47.91 12.7,75.98 16.6,76.08 0.2,2.2 37.6,2.01 110,-0.67 72.4,-2.59 180,-7.67 320.5,-14.95 281,-14.47 693.6,-37.95 1220.8,-69.28 527.3,-32.19 1169.1,-71.39 1908.4,-116.51 717.4,-45.23 1529.3,-96.4 2419.1,-152.55 -356.3,766.93 -742.3,1598.07 -1152,2480.17 -41,1.06 -82.2,2.21 -123.4,3.26 8.1,-17.44 16.2,-34.78 24.4,-52.22 44,-93.9 88.2,-188.28 132.6,-283.05"
             style="fill:#f04232;fill-opacity:1;fill-rule:nonzero;stroke:none"
             id="path32" />
        </g>
        <path
           d="m -75.516628,396.91724 c -11.991975,21.64645 -23.628704,42.65084 -34.730972,62.68862 43.141901,-5.25286 87.044392,-5.74322 130.383498,-10.12472 -29.3736908,-2.88573 -59.010201,-3.09387 -88.421639,-0.62442 28.914727,-4.08164 57.96492,-7.20372 87.086728,-9.36272 -31.095599,-1.44286 -62.256815,-1.46756 -93.354178,-0.0741 30.530802,-3.30552 61.061251,-6.61105 91.592053,-9.92011 -26.9610437,-0.97014 -53.92244,-1.9438 -80.883483,-2.91394 33.014357,-3.18911 66.1553623,-5.05884 99.318592,-5.60917 -33.0341131,-3.78883 -66.252023,-5.68678 -99.448767,-7.58472 37.891863,-0.78317 75.783727,-1.56281 113.675237,-2.34598 -34.498846,-4.79425 -69.064721,-9.10519 -103.68457,-12.9293 22.433493,-0.10583 44.8662806,-0.2152 67.299774,-0.32456 -20.8724516,-2.52941 -41.744903,-5.06236 -62.617354,-7.5953 26.469624,-1.80623 53.0704809,-1.02659 79.50518,1.23472 21.388918,1.82739 43.176475,4.76955 62.351712,14.42156 15.388517,7.74347 28.957767,20.574 35.297187,36.31847 0.0818,-0.007 0.16298,-0.0176 0.24518,-0.0176 0.13476,-0.004 0.27058,-0.0106 0.40675,-0.0141 l 0.20214,-0.007 c -10e-4,-0.0635 -0.0138,-0.13758 -0.0201,-0.20813 -0.0307,-0.27517 -0.0614,-0.55387 -0.0928,-0.83609 -0.0399,-0.381 -0.0797,-0.76553 -0.11994,-1.15005 -0.67557,-1.93675 -1.69439,-4.74839 -3.14466,-8.29734 -1.47708,-3.59833 -3.46957,-7.92339 -5.99405,-12.83053 -0.22049,-0.41275 -0.44697,-0.83608 -0.6724,-1.25941 10e-4,0.0317 0.002,0.0635 0.003,0.0953 -0.81104,-1.17475 -1.62313,-2.35303 -2.43628,-3.53484 -0.39829,-0.58914 -0.82903,-1.1818 -1.25942,-1.778 l -1.28693,-1.78858 -1.2887,-1.78858 -0.32244,-0.4445 c -0.10795,-0.1517 -0.21131,-0.27164 -0.31715,-0.40923 -0.19967,-0.26811 -0.44556,-0.52563 -0.67451,-0.77963 l -1.2767,-1.40759 c -0.43639,-0.46214 -0.90664,-0.89605 -1.35855,-1.34408 l -0.68474,-0.67028 c -0.2286,-0.22225 -0.48013,-0.42333 -0.71931,-0.635 l -1.45274,-1.26294 c -0.49848,-0.40923 -1.0153,-0.79728 -1.52224,-1.19592 -3.45899,-2.667 -7.212189,-4.93536 -11.093451,-6.90033 -3.884436,-1.96145 -7.899753,-3.62303 -11.959167,-5.06589 -4.060825,-1.44286 -8.168217,-2.67053 -12.278079,-3.73945 -4.109508,-1.07244 -8.225367,-1.97555 -12.323234,-2.75166 -8.192559,-1.56634 -16.303626,-2.63526 -24.227368,-3.42901 -7.92727,-0.77963 -15.672154,-1.27 -23.1813821,-1.55927 -15.0212787,-0.57503 -29.0921739,-0.40217 -41.9159999,0.0917 -6.413148,0.24694 -12.515498,0.58914 -18.275654,0.97719 -2.879725,0.19756 -5.673725,0.40923 -8.377767,0.635 -1.350786,0.11995 -2.6797,0.23636 -3.986389,0.35278 -0.44062,0.0423 -0.879123,0.0847 -1.315861,0.127 -0.297039,0.0318 -0.591609,0.0635 -0.886884,0.0917 -0.07161,0.0706 -0.141816,0.13406 -0.213078,0.20109 -3.15595,5.71147 -6.339769,11.47233 -9.548284,17.27905"
           style="fill:#fcd34f;fill-opacity:1;fill-rule:nonzero;stroke:none;stroke-width:0.0352778"
           id="path34" />
        <path
           d="m 108.44288,453.52397 c 1.155,-1.29822 2.6603,-2.85044 4.61787,-4.50497 1.96144,-1.63689 4.38502,-3.40078 7.45454,-4.826 1.53423,-0.70909 3.23533,-1.31939 5.10046,-1.70039 0.46497,-0.0988 0.94474,-0.15875 1.42664,-0.23989 0.21343,-0.0212 0.42827,-0.0423 0.64452,-0.0635 0.0564,-0.004 0.11078,-0.0106 0.16546,-0.0176 -6.33942,-15.74447 -19.90867,-28.575 -35.297187,-36.31847 -19.175237,-9.65201 -40.962794,-12.59417 -62.351712,-14.42156 -26.4346991,-2.26131 -53.035556,-3.04095 -79.50518,-1.23472 20.872451,2.53294 41.7449024,5.06589 62.617354,7.5953 -22.4334934,0.10936 -44.866281,0.21873 -67.299774,0.32456 34.619849,3.82411 69.185724,8.13505 103.68457,12.9293 -37.89151,0.78317 -75.783374,1.56281 -113.675237,2.34598 33.196744,1.89794 66.4146539,3.79589 99.448767,7.58472 -33.1632297,0.55033 -66.304235,2.42006 -99.318592,5.60917 26.961043,0.97014 53.9224393,1.9438 80.883483,2.91394 -30.530802,3.30906 -61.061251,6.61459 -91.592053,9.92011 31.097363,-1.39347 62.258579,-1.36877 93.354178,0.0741 -29.121808,2.159 -58.172001,5.28108 -87.086728,9.36272 29.411438,-2.46945 59.0479482,-2.26131 88.421639,0.62442 -43.339106,4.3815 -87.241597,4.87186 -130.383498,10.12472 -0.65687,1.18533 -1.31304,2.36714 -1.96603,3.54542 30.599944,-0.92781 59.173887,-1.79564 84.82295,-2.57528 26.6735294,-0.77611 50.306114,-1.4217 69.962188,-1.91206 19.656073,-0.49036 35.335635,-0.8255 46.103119,-0.98425 5.383742,-0.0776 9.539465,-0.10936 12.350403,-0.0953 2.81058,0.0176 4.27637,0.0776 4.28025,0.19403 -0.096,-0.067 0.83643,-1.64394 3.1376,-4.2545"
           style="fill:#f29830;fill-opacity:1;fill-rule:nonzero;stroke:none;stroke-width:0.0352778"
           id="path36" />
        <path
           d="m 131.58581,442.3515 0.32703,0.0564 c 0.13793,0.0247 0.27305,0.0564 0.40816,0.0882 0.27164,0.06 0.53975,0.11994 0.80786,0.17991 0.52211,0.1517 1.04775,0.2787 1.54517,0.44803 0.49742,0.17992 0.99483,0.33161 1.46756,0.52564 1.91205,0.73025 3.55952,1.70392 5.04472,2.64936 0.35983,0.25753 0.70908,0.51153 1.0548,0.75847 0.3422,0.24695 0.68439,0.47978 0.98778,0.75495 0.30692,0.26458 0.61031,0.52211 0.90664,0.77258 0.29281,0.25753 0.5962,0.48683 0.84667,0.762 0.52211,0.52564 1.016,1.02658 1.48872,1.50636 0.44803,0.49742 0.83961,0.99836 1.22767,1.45345 0.1905,0.23283 0.37394,0.45508 0.55386,0.6738 0.18344,0.21167 0.32103,0.44803 0.47625,0.66322 0.29986,0.43392 0.57503,0.83609 0.83255,1.21003 0.53623,0.73378 0.87489,1.41817 1.17475,1.95439 0.58209,1.07245 0.84667,1.64042 0.78317,1.6757 -0.0353,-0.10937 1.3335,-0.6597 4.01108,-1.62631 0.66675,-0.23636 1.41464,-0.51153 2.25073,-0.79375 0.83961,-0.254 1.76036,-0.53622 2.75872,-0.83961 1.00189,-0.29986 2.08139,-0.62089 3.23497,-0.97014 1.1677,-0.29633 2.413,-0.61736 3.73592,-0.95603 10.55158,-2.75519 26.35955,-5.29167 46.2915,-5.89139 9.96245,-0.28575 20.94089,-0.14464 32.76953,0.30692 0.74083,0.0282 1.48167,0.0564 2.22956,0.0847 0.37041,0.0141 0.74789,0.0282 1.12183,0.0423 0.37747,0.0247 0.75494,0.0494 1.13594,0.0741 1.32292,0.0917 2.65995,0.18345 4.00403,0.27517 24.14411,-1.57692 48.40464,-1.3582 72.51701,0.66675 -28.91367,-4.08164 -57.96492,-7.20372 -87.08673,-9.36272 31.09383,-1.44286 62.2547,-1.46756 93.35206,-0.0741 -30.52939,-3.30552 -61.05878,-6.61105 -91.5917,-9.92011 26.96281,-0.97014 53.92209,-1.9438 80.88489,-2.91394 -33.01294,-3.18911 -66.15642,-5.05884 -99.31753,-5.60917 33.03411,-3.78883 66.25167,-5.68678 99.44806,-7.58472 -37.89186,-0.78317 -75.78372,-1.56281 -113.67559,-2.34598 34.49814,-4.79425 69.06331,-9.10519 103.68492,-12.9293 -22.43314,-0.10583 -44.86628,-0.2152 -67.29942,-0.32456 20.87034,-2.52941 41.7442,-5.06236 62.61806,-7.5953 -26.47244,-1.80623 -53.07189,-1.02659 -79.50553,1.23472 -21.38892,1.82739 -43.17647,4.76955 -62.35348,14.42156 -7.81755,3.93347 -14.97541,7.5953 -20.91972,11.98739 -0.635,0.89605 -1.2453,1.778 -1.83444,2.63877 -1.93675,2.81164 -3.60187,5.44689 -5.10823,7.80698 -2.98097,4.74133 -5.19641,8.46666 -6.74511,10.95375 -0.55421,0.90664 -1.01741,1.64747 -1.38959,2.22602 -0.0363,0.254 -0.0727,0.51153 -0.10866,0.762 0.31786,0.0212 0.63148,0.0635 0.95356,0.12348"
           style="fill:#f29830;fill-opacity:1;fill-rule:nonzero;stroke:none;stroke-width:0.0352778"
           id="path38" />
        <g
           id="g40"
           transform="matrix(0.0361188,0,0,-0.0361188,-220.48502,512.28264)">
          <path
             d="m 12447.2,3345.93 c 731.8,62.61 1468.2,84.19 2201.2,34.19 -577.9,-70.13 -1155.9,-140.26 -1733.7,-210.29 621.1,-3.03 1242.2,-6.05 1863.3,-8.99 -958.6,-105.87 -1915.5,-225.23 -2870.7,-357.96 1049.1,-21.69 2098.2,-43.27 3147.3,-64.95 -919.1,-52.55 -1838.8,-105.1 -2753.4,-210 918.1,-15.23 1835.8,-67 2749.8,-155.29 -746.5,-26.86 -1492.9,-53.82 -2239.4,-80.68 845.3,-91.62 1690.6,-183.13 2535.8,-274.65 -861,38.58 -1723.7,37.9 -2584.6,-2.05 806.3,-59.78 1610.6,-146.22 2411.1,-259.22 -667.5,56.06 -1339.2,62.11 -2007.7,18.46 5.6,-0.39 11,-0.79 16.5,-1.18 21.5,-1.07 42.8,-3.51 64.2,-5.95 21.4,-2.35 42.9,-4.69 64.4,-7.04 43.2,-4.88 87,-8.89 130.6,-14.75 43.7,-5.95 87.7,-11.91 132.1,-17.97 44.3,-6.05 89.2,-11.81 134,-19.04 44.9,-7.03 90.1,-13.97 135.7,-21 45.6,-7.03 91.5,-14.16 137.6,-22.17 369.1,-61.15 757.3,-134.69 1162.4,-216.25 101.3,-20.41 203.6,-41.22 306.9,-62.8 103.2,-21.69 207.5,-43.56 312.8,-65.73 105.2,-22.76 211.4,-45.61 318.5,-68.76 53.5,-11.82 107.3,-23.64 161.4,-35.56 l 40.5,-8.98 12.5,-2.74 0.8,-0.19 2.9,-0.49 c -294.1,626.66 -604.3,1287.41 -924.7,1970.03 -45.2,96.6 -90.2,192.81 -135,288.62 -11.3,23.93 -22.5,47.86 -33.6,71.69 l -4.7,10.06 c -10.9,2.74 -21.6,5.57 -32.3,8.21 l -40.6,10.16 -24.6,5.86 -40.7,9.56 c -54.4,12.71 -108.9,24.33 -163.1,35.75 -108.7,22.37 -216.9,42.49 -324.4,60.46 -107.5,17.88 -214.5,33.6 -320.5,47.57 -106.1,13.77 -211.4,25.3 -315.7,35.26 -417.4,38.38 -819.7,46.2 -1198.4,19.63 -189.3,-13.28 -372.5,-34.77 -548.5,-64.56 -176.8,-30.08 -346.9,-63.39 -509.3,-102.16 -162.1,-38.98 -316.2,-83.91 -459.8,-137.33 -143.5,-53.33 -276.7,-115.06 -395.4,-187.43 -118.9,-71.89 -224.5,-152.17 -315.9,-237.25 -91.6,-84.97 -170.3,-173.07 -239.6,-258.83 -48.2,-59.58 -91.6,-118.08 -131.6,-174.44 164.6,121.61 362.8,222.99 579.2,331.89 531,267.23 1134.2,348.69 1726.4,399.28"
             style="fill:#fcd34f;fill-opacity:1;fill-rule:nonzero;stroke:none"
             id="path42" />
        </g>
        <path
           d="m 157.69278,400.56497 c 3.33728,-3.23145 7.23547,-6.30767 11.63461,-9.06992 4.39209,-2.77989 9.32392,-5.15761 14.61559,-7.21078 5.28814,-2.05317 10.94669,-3.78178 16.87336,-5.28108 5.93019,-1.49225 12.1285,-2.77636 18.55258,-3.937 6.45937,-1.16064 13.17978,-2.01084 20.11539,-2.55764 10.71034,-0.84314 21.92867,-0.92428 33.51037,-0.31045 2.87866,-1.41816 5.72558,-2.92452 8.52311,-4.55436 -22.225,-0.35278 -44.45,0 -66.32223,3.88056 25.75278,-10.58334 53.62223,-14.46389 80.08056,-23.28334 -16.03375,1.14653 -32.17333,1.77448 -48.18944,3.11856 -0.89606,0.41275 -1.78506,0.82197 -2.67406,1.23472 -3.55247,1.61572 -7.05908,3.21028 -10.51631,4.78367 -6.92502,3.09386 -13.64897,6.09247 -20.15066,8.99583 -6.48053,2.91747 -12.71059,5.78909 -18.61962,8.68892 -5.9055,2.90336 -11.50055,5.82789 -16.65464,8.89706 -5.1435,3.0868 -9.86014,6.30061 -13.99469,9.73666 -4.1275,3.44311 -7.7082,7.05203 -10.74914,10.70328 -1.12183,1.34408 -2.17664,2.68464 -3.175,4.01461 2.10255,-2.60703 4.45558,-5.25639 7.14022,-7.8493"
           style="fill:#fbc66c;fill-opacity:1;fill-rule:nonzero;stroke:none;stroke-width:0.0352778"
           id="path44" />
        <path
           d="m 215.19556,371.5243 c 21.87223,-3.88056 44.09723,-4.23334 66.32223,-3.88056 -2.79753,1.62984 -5.64445,3.1362 -8.52311,4.55436 3.42194,0.17992 6.87211,0.41981 10.3505,0.71967 3.81705,0.34219 7.66586,0.74436 11.54642,1.22767 3.87702,0.49389 7.7858,1.04775 11.71927,1.68275 3.93348,0.64205 7.89164,1.35819 11.86745,2.16605 1.98967,0.40922 3.98639,0.82903 5.98311,1.28764 l 1.49931,0.34572 0.59972,0.14111 0.0212,0.004 0.0741,0.0141 c -7.83167,-17.85761 -15.97731,-36.43842 -24.34167,-55.50958 -0.67028,0.35277 -1.33703,0.70908 -2.00378,1.05833 -15.46225,8.13858 -30.61758,15.4552 -45.13086,22.26734 -2.71639,1.28058 -5.41867,2.52236 -8.09272,3.75708 16.01611,-1.34408 32.15569,-1.97203 48.18944,-3.11856 -26.45833,8.81945 -54.32778,12.7 -80.08056,23.28334"
           style="fill:#fde0ac;fill-opacity:1;fill-rule:nonzero;stroke:none;stroke-width:0.0352778"
           id="path46" />
        <path
           d="m 147.99139,465.1868 c -6.70278,0 -11.28889,-16.58055 -19.40278,-16.58055 -8.11389,0 -14.81666,12.34722 -17.99166,15.52222 -3.175,3.175 -7.05556,-2.11667 -7.05556,-2.11667 -0.70556,4.23334 1.76389,8.46667 9.525,8.46667 7.76111,0 24.34167,0 35.63056,0 11.28889,0 7.40833,-11.64167 7.40833,-11.64167 0,0 -1.41111,6.35 -8.11389,6.35"
           style="fill:#d11b38;fill-opacity:1;fill-rule:nonzero;stroke:none;stroke-width:0.0352778"
           id="path48" />
        <path
           d="m -43.743342,366.93819 c 23.283335,-4.93889 47.272225,-2.46945 70.55556,-5.64445 -25.4000018,-2.82222 -51.152781,-4.93889 -76.905561,-4.58611 21.10211,-3.38667 42.3971892,-3.50308 63.74201,-4.04283 -9.9250507,-2.46945 -19.6088013,-4.70959 -28.97858,-6.78392 -6.206067,-0.41628 -12.395553,-0.86783 -18.535651,-1.52047 2.130778,-0.44098 4.265084,-0.80786 6.402917,-1.12536 -2.816578,-0.60325 -5.602464,-1.19239 -8.351309,-1.77095 -2.583744,-0.53269 -5.135386,-1.06186 -7.653867,-1.58397 -1.259769,-0.25753 -2.511425,-0.51506 -3.754614,-0.76553 -0.781403,-0.15522 -1.558925,-0.31044 -2.336094,-0.46214 -0.139348,0.38453 -0.308681,0.83961 -0.509412,1.36172 -0.726369,1.89442 -1.851377,4.67431 -3.341158,8.26206 -1.489781,3.58775 -3.344686,7.98689 -5.531556,13.11981 -1.097139,2.56116 -2.273653,5.31283 -3.525309,8.23383 -0.628297,1.46403 -1.275644,2.96686 -1.941336,4.51556 -0.844903,1.95439 -0.912283,2.1343 -1.18498,2.82927 0.254352,-0.0388 0.510822,-0.0741 0.769761,-0.11288 l 0.373591,-0.0494 0.184856,-0.0247 0.453672,-0.0529 c 1.311628,-0.14464 2.645834,-0.29281 4.001912,-0.44098 2.713214,-0.28222 5.516739,-0.55386 8.406695,-0.80433 5.779558,-0.50094 11.905192,-0.94897 18.346915,-1.29117 12.882034,-0.68791 27.0326568,-1.03364 42.1798772,-0.58914 5.3812728,0.15875 10.8895448,0.42687 16.5047098,0.82903 1.218494,-0.31044 2.435225,-0.68791 3.651955,-1.15005 -24.3416678,-3.52778 -48.683336,-5.64445 -73.025004,-6.35"
           style="fill:#fde0ac;fill-opacity:1;fill-rule:nonzero;stroke:none;stroke-width:0.0352778"
           id="path50" />
        <path
           d="m -15.329913,345.88088 c -1.552222,-0.34572 -3.097741,-0.68439 -4.631972,-1.01953 -2.525889,-0.55386 -5.024967,-1.09361 -7.500762,-1.6263 -2.137833,0.3175 -4.272139,0.68438 -6.402917,1.12536 6.140098,0.65264 12.329584,1.10419 18.535651,1.52047"
           style="fill:#fbc66c;fill-opacity:1;fill-rule:nonzero;stroke:none;stroke-width:0.0352778"
           id="path52" />
        <path
           d="m 83.476094,379.40183 c -5.307895,-3.75003 -10.92694,-6.93562 -16.720963,-9.62731 -5.795433,-2.69522 -11.742209,-4.94242 -17.711209,-6.94619 -5.970764,-1.99673 -11.94929,-3.8347 -17.830801,-5.53156 -5.916437,-1.64395 -11.766904,-3.21028 -17.558457,-4.63197 -0.0021,0 -0.0042,0 -0.006,0 -21.3448208,0.53975 -42.6399,0.65616 -63.74201,4.04283 25.75278,-0.35278 51.5055592,1.76389 76.905561,4.58611 -23.283335,3.175 -47.272225,0.70556 -70.55556,5.64445 24.341668,0.70555 48.6833362,2.82222 73.025004,6.35 -1.21673,0.46214 -2.433461,0.83961 -3.651955,1.15005 2.286705,0.16581 4.588933,0.34925 6.910564,0.56092 8.019698,0.75142 16.244712,1.78858 24.589318,3.34786 4.173009,0.76906 8.374592,1.6757 12.583232,2.75872 4.209344,1.0795 8.429272,2.32834 12.623448,3.80648 4.192058,1.48166 8.361186,3.19616 12.428009,5.2458 1.262944,0.63853 2.514953,1.31233 3.753908,2.01789 -4.626681,-4.61433 -9.61637,-8.94292 -15.042092,-12.77408"
           style="fill:#fbc66c;fill-opacity:1;fill-rule:nonzero;stroke:none;stroke-width:0.0352778"
           id="path54" />
        <path
           d="m 281.16501,328.13263 c -20.10833,7.76111 -40.92222,13.75833 -59.61945,24.69444 9.14753,-2.8963 18.49262,-4.87186 27.92237,-6.57577 1.37936,-0.64911 2.75872,-1.30175 4.14514,-1.9685 14.43214,-6.88623 29.52044,-14.25575 44.87333,-22.39434 1.91911,-1.016 3.83822,-2.04964 5.75734,-3.09739 0.92427,-0.51153 1.85561,-1.02658 2.78341,-1.53811 l 0.0212,-0.0141 c -0.004,-0.007 -0.007,-0.0141 -0.0106,-0.0176 -1.75684,-3.99697 -3.53131,-8.02569 -5.31637,-12.08264 -3.61597,-8.24089 -7.28839,-16.59819 -11.00314,-25.05781 -1.85561,-4.2298 -3.69711,-8.43491 -5.53155,-12.61533 l -0.68439,-1.56281 c -0.0106,-0.0247 -0.004,-0.0106 -0.007,-0.0176 0,0 0.004,0 -0.0141,0.007 l -1.31939,0.46214 c -0.40569,0.14817 -0.81491,0.28928 -1.22061,0.43392 0.80434,2.34244 1.64395,4.78366 2.51178,7.33425 2.08845,6.17008 4.37797,12.9293 6.83331,20.18242 0.15169,0.45508 0.30691,0.91016 0.45861,1.36877 0.13758,0.41628 0.27516,0.83256 0.41275,1.25236 l 0.20108,0.635 c 0.007,0.0247 0.0247,0.0529 0.0212,0.0776 l -0.0529,0.0635 -0.10583,0.13052 -0.21167,0.25753 c -0.28222,0.33514 -0.56092,0.66675 -0.84314,1.00189 l -0.18697,0.22578 -0.12347,0.14111 -0.25047,0.28222 c -0.32809,0.37747 -0.66323,0.75847 -1.00542,1.12536 -0.33867,0.37042 -0.68086,0.74436 -1.02658,1.11831 -0.34925,0.36336 -0.6985,0.73025 -1.05128,1.10066 -0.6985,0.74084 -1.43228,1.45698 -2.159,2.19075 -2.93864,2.89984 -6.06073,5.77498 -9.36625,8.59367 -6.59695,5.65503 -13.90298,11.12309 -21.74523,16.37948 -1.30527,0.87488 -2.63172,1.73919 -3.96875,2.59997 10.3505,-1.08656 20.72217,-2.2225 30.88217,-4.71664"
           style="fill:#fef9ca;fill-opacity:1;fill-rule:nonzero;stroke:none;stroke-width:0.0352778"
           id="path56" />
        <path
           d="m 177.01089,381.55377 c 5.20348,-3.20675 10.82323,-6.24064 16.74284,-9.23925 5.92314,-2.99861 12.14967,-5.95489 18.62314,-8.94644 6.47347,-2.95981 13.17272,-6.02192 20.06953,-9.17576 3.43605,-1.59455 6.9215,-3.2138 10.45633,-4.85422 2.16958,-1.02658 4.36034,-2.04964 6.5652,-3.0868 -9.42975,1.70391 -18.77484,3.67947 -27.92237,6.57577 18.69723,-10.93611 39.51112,-16.93333 59.61945,-24.69444 -10.16,2.49414 -20.53167,3.63008 -30.88217,4.71664 -6.69219,4.30389 -13.76539,8.42786 -21.05025,12.39661 -8.73125,4.78719 -17.26847,9.34156 -25.28711,14.08289 -4.02167,2.35303 -7.89164,4.78014 -11.6205,7.24253 -0.92428,0.62441 -1.86267,1.22414 -2.76578,1.85914 -0.90664,0.63147 -1.80622,1.25941 -2.70228,1.88383 -0.89605,0.62442 -1.76036,1.28058 -2.63172,1.91206 -0.43744,0.3175 -0.87136,0.635 -1.30528,0.9525 -0.42333,0.32808 -0.84666,0.65263 -1.27,0.97719 -8.92175,6.76275 -16.46061,14.02997 -22.71183,21.19842 1.24178,-1.21356 2.54,-2.413 3.90172,-3.59128 4.19453,-3.61597 8.98172,-6.99206 14.17108,-10.20939"
           style="fill:#fbc66c;fill-opacity:1;fill-rule:nonzero;stroke:none;stroke-width:0.0352778"
           id="path58" />
        <path
           d="m 130.03853,441.10266 c 0.0907,-0.30339 0.19473,-0.635 0.31362,-1.00541 0.29457,-0.91723 0.67239,-2.04964 1.13594,-3.37961 0.50342,-1.31234 1.09397,-2.82575 1.7713,-4.52614 0.16933,-0.42687 0.3422,-0.86078 0.52211,-1.30881 0.19403,-0.4445 0.39511,-0.89606 0.59972,-1.36172 0.40923,-0.93134 0.84314,-1.905 1.2947,-2.92453 0.43744,-1.02306 0.9525,-2.06728 1.48872,-3.15031 0.5327,-1.08655 1.08656,-2.21544 1.66158,-3.38313 2.42006,-4.61434 5.35517,-9.78606 9.03112,-15.24001 3.67241,-5.45041 8.09625,-11.17247 13.35616,-16.86277 0.65617,-0.70909 1.32292,-1.4217 1.9932,-2.14489 0.69497,-0.6985 1.39347,-1.40406 2.09903,-2.11314 1.38994,-1.44286 2.89983,-2.80106 4.39208,-4.22981 2.83281,-2.56117 5.79261,-5.14703 8.94997,-7.62353 -0.64558,0.31398 -1.28411,0.67381 -1.905,1.08656 14.11111,-17.99167 35.63056,-24.34167 55.03334,-35.63056 1.41111,-1.05833 2.46944,-2.11667 3.52778,-3.175 -18.69723,5.99722 -38.45278,10.58333 -54.32778,22.57778 2.11666,-2.46944 4.58611,-4.23333 7.40833,-5.99722 16.93333,-8.81945 35.27778,-15.16945 48.33056,-28.575 -19.05,5.29166 -38.1,10.58333 -55.38612,20.46111 15.16945,-15.16945 36.33612,-20.46111 54.68056,-30.69167 -19.05,4.93889 -39.51111,8.46667 -56.44444,19.05 1.76388,-2.11667 3.52777,-4.23333 5.99722,-5.64444 16.58055,-9.87778 34.925,-14.46389 49.03611,-27.16389 -16.93333,4.58611 -34.925,8.46666 -49.38889,19.40277 5.64444,-4.58611 11.28889,-8.11389 17.63889,-11.64166 10.58333,-5.64445 20.10833,-11.28889 29.63334,-17.99167 -14.11112,3.52778 -28.22223,7.40833 -41.27501,14.11111 16.93334,-10.58333 35.27778,-19.75556 51.50556,-31.75 -13.40555,5.64444 -28.575,7.05556 -40.21667,16.22778 6.35,-7.05556 16.58056,-9.525 21.87223,-17.63889 -1.25942,0.31397 -2.50473,0.67028 -3.73239,1.05833 -5.81731,4.13103 -12.0015,8.55486 -18.47498,13.24681 -0.8255,0.59619 -1.66158,1.19944 -2.49766,1.80622 -0.83256,0.61383 -1.67217,1.22767 -2.51531,1.84856 -1.68628,1.23825 -3.39019,2.49413 -5.11175,3.76061 -1.72861,1.25941 -3.43958,2.57528 -5.18936,3.88055 -0.87136,0.65264 -1.74625,1.31234 -2.62467,1.97203 -0.88547,0.6597 -1.76389,1.32645 -2.63878,2.01083 -1.7533,1.3582 -3.52425,2.72698 -5.30577,4.10987 -0.89959,0.68086 -1.77095,1.40052 -2.65289,2.11313 -0.88195,0.71262 -1.76742,1.42875 -2.65642,2.14842 -0.4445,0.35983 -0.889,0.71967 -1.33703,1.0795 -0.44803,0.35983 -0.89605,0.71967 -1.32291,1.09714 -0.86784,0.74789 -1.73567,1.49931 -2.60703,2.25425 -0.43745,0.37747 -0.87489,0.75495 -1.31234,1.13242 -0.43038,0.381 -0.889,0.74083 -1.29822,1.15005 -0.83608,0.79728 -1.67569,1.59456 -2.51883,2.39536 -1.72156,1.56281 -3.2632,3.28437 -4.86128,4.93184 -0.81139,0.81491 -1.53458,1.69686 -2.28247,2.55411 -0.74084,0.8643 -1.49578,1.71097 -2.21897,2.5788 -0.6985,0.889 -1.38995,1.77448 -2.08492,2.65289 -0.3422,0.4445 -0.69497,0.87842 -1.03011,1.32645 -0.32103,0.45508 -0.64559,0.90664 -0.96661,1.35819 -0.635,0.91017 -1.30175,1.79564 -1.90853,2.71639 -0.5962,0.92428 -1.18886,1.84503 -1.78153,2.76225 -2.28953,3.71122 -4.31447,7.49653 -5.96547,11.33123 -0.20461,0.47977 -0.40922,0.95955 -0.61384,1.4358 -0.18697,0.48331 -0.37041,0.96661 -0.55386,1.44639 -0.38452,0.95956 -0.69497,1.92969 -1.02305,2.88925 -0.14817,0.48331 -0.29281,0.96308 -0.43745,1.44286 -0.11289,0.38806 -0.21166,0.77964 -0.31044,1.16417 0.0247,0.94544 0.0388,1.88383 0.0423,2.81516 0.0388,4.15573 -0.22225,8.21267 -0.44803,12.07559 -0.23988,3.86292 -0.43744,7.62705 -0.63147,11.26067 -0.37747,7.2778 -0.72672,14.05466 -1.04775,20.24239 -0.63994,12.37544 -1.19662,22.39433 -1.66934,29.3123 -0.097,1.42875 -0.19086,2.71992 -0.28011,3.87703 -0.16686,2.159 -0.32067,3.84175 -0.46002,4.99886"
           style="fill:#ccccc9;fill-opacity:1;fill-rule:nonzero;stroke:none;stroke-width:0.0352778"
           id="path60" />
        <path
           d="m 202.49556,286.50485 c 11.64167,-9.17222 26.81112,-10.58334 40.21667,-16.22778 -16.22778,11.99444 -34.57222,21.16667 -51.50556,31.75 13.05278,-6.70278 27.16389,-10.58333 41.27501,-14.11111 -9.52501,6.70278 -19.05001,12.34722 -29.63334,17.99167 -6.35,3.52777 -11.99445,7.05555 -17.63889,11.64166 14.46389,-10.93611 32.45556,-14.81666 49.38889,-19.40277 -14.11111,12.7 -32.45556,17.28611 -49.03611,27.16389 -2.46945,1.41111 -4.23334,3.52777 -5.99722,5.64444 16.93333,-10.58333 37.39444,-14.11111 56.44444,-19.05 -18.34444,10.23056 -39.51111,15.52222 -54.68056,30.69167 17.28612,-9.87778 36.33612,-15.16945 55.38612,-20.46111 -13.05278,13.40555 -31.39723,19.75555 -48.33056,28.575 -2.82222,1.76389 -5.29167,3.52778 -7.40833,5.99722 15.875,-11.99445 35.63055,-16.58056 54.32778,-22.57778 -1.05834,1.05833 -2.11667,2.11667 -3.52778,3.175 -19.40278,11.28889 -40.92223,17.63889 -55.03334,35.63056 0.62089,-0.41275 1.25942,-0.77258 1.905,-1.08656 0.25048,-0.20108 0.50095,-0.39864 0.75848,-0.59619 0.42686,-0.33514 0.85372,-0.67381 1.28411,-1.01247 0.43744,-0.32809 0.87841,-0.65617 1.31939,-0.98778 0.88194,-0.65264 1.76036,-1.32997 2.667,-1.97908 0.90663,-0.64559 1.8168,-1.2947 2.73402,-1.94734 0.91723,-0.65264 1.86267,-1.27353 2.80106,-1.91558 3.77119,-2.54 7.68703,-5.03061 11.74044,-7.43656 8.0892,-4.84011 16.66523,-9.45091 25.36473,-14.21694 8.71361,-4.74839 17.00742,-9.61673 24.77206,-14.7567 7.75758,-5.13292 14.99658,-10.45633 21.54061,-15.93144 3.2773,-2.7305 6.37116,-5.50687 9.28511,-8.29734 0.71967,-0.70203 1.44639,-1.38994 2.13431,-2.10255 0.34925,-0.34925 0.69497,-0.70203 1.04069,-1.05128 0.33867,-0.35631 0.67381,-0.70908 1.00894,-1.06186 0.33514,-0.34925 0.6597,-0.70556 0.98073,-1.06186 0.17286,-0.18698 0.34572,-0.37395 0.51505,-0.56092 0.0106,-0.0176 0.0353,-0.0282 0.0353,-0.0459 l -0.0141,-0.0564 -0.0353,-0.127 c -0.14464,-0.45861 -0.28928,-0.91722 -0.43392,-1.37583 -2.28952,-7.30603 -4.42383,-14.11464 -6.37116,-20.33058 -3.86292,-12.44248 -6.92503,-22.53192 -8.9535,-29.53103 -1.85561,-6.39586 -2.85045,-10.20939 -2.80811,-10.88673 -0.35631,0.5327 -3.34434,2.78342 -8.49489,6.477 -5.63034,4.03578 -13.83242,9.78606 -23.95362,16.90864 -5.17172,3.64067 -10.85144,7.64117 -16.9298,11.95917 1.22766,-0.38805 2.47297,-0.74436 3.73239,-1.05833 -5.29167,8.11389 -15.52223,10.58333 -21.87223,17.63889"
           style="fill:#ffffff;fill-opacity:1;fill-rule:nonzero;stroke:none;stroke-width:0.0352778"
           id="path62" />
        <path
           d="m -12.346118,340.83263 c 12.347223,1.05833 24.341668,4.23333 36.336113,7.40833 -11.641667,-10.58333 -27.516668,-14.81666 -41.980558,-19.75555 14.46389,0.70555 28.575002,4.93889 42.686114,8.11389 -8.819445,-9.17223 -21.5194458,-13.05278 -33.1611132,-17.28612 14.4854092,0.30692 28.7012962,3.57717 42.1777612,8.86884 -0.428272,-0.32103 -0.85337,-0.64206 -1.283053,-0.96309 -9.957153,-7.45772 -19.768257,-14.54855 -29.198713,-21.30778 -4.726517,-3.36197 -9.3496701,-6.65338 -13.85182,-9.86013 -3.598334,-2.54706 -7.124348,-5.0412 -10.576632,-7.48595 -2.190044,3.85939 -4.518378,7.95161 -6.981119,12.27314 -5.901973,10.31875 -12.578998,21.9957 -19.892082,34.78036 l 0.350308,0.0565 0.197203,0.0353 0.935567,0.17638 c 1.248833,0.23989 2.50578,0.48331 3.771547,0.72673 2.528711,0.49741 5.090937,1.00189 7.685264,1.51341 5.185481,1.03011 10.493729,2.11667 15.915218,3.25614 10.6210813,2.22956 21.6760793,4.67431 33.065863,7.43303 -8.4564363,-3.32669 -17.1707535,-6.06072 -26.195868,-7.98336"
           style="fill:#fef9ca;fill-opacity:1;fill-rule:nonzero;stroke:none;stroke-width:0.0352778"
           id="path64" />
        <path
           d="M 78.630338,365.34363 C 65.674926,352.97171 50.27688,340.61391 33.712199,328.18202 20.235734,322.89035 6.019847,319.6201 -8.4655622,319.31318 c 11.6416674,4.23334 24.3416682,8.11389 33.1611132,17.28612 -14.111112,-3.175 -28.222224,-7.40834 -42.686114,-8.11389 14.46389,4.93889 30.338891,9.17222 41.980558,19.75555 -11.994445,-3.175 -23.98889,-6.35 -36.336113,-7.40833 9.0251145,1.92264 17.7394317,4.65667 26.195868,7.98336 0.237773,0.06 0.473781,0.11642 0.711906,0.17286 5.824361,1.397 11.723512,2.9457 17.700273,4.57906 5.977467,1.70039 11.972573,3.52425 18.034001,5.53155 6.055431,2.01436 12.148257,4.30037 18.132074,7.0732 5.9817,2.77283 11.831109,6.07836 17.343615,9.97655 4.048831,2.8575 7.847895,5.97959 11.432117,9.27101 -5.37845,-6.63223 -11.536187,-13.42673 -18.573398,-20.07659"
           style="fill:#fbc66c;fill-opacity:1;fill-rule:nonzero;stroke:none;stroke-width:0.0352778"
           id="path66" />
        <path
           d="m 101.60111,378.57985 c -3.880554,-16.22777 -16.933333,-29.63333 -29.280556,-40.56944 11.28889,8.46666 24.341668,14.46389 35.983336,22.57778 -7.40833,-16.93334 -26.105558,-25.40001 -41.275003,-34.21945 13.052779,5.64444 26.458335,10.93611 38.452783,18.69722 -9.877781,-15.16944 -26.458338,-25.75278 -43.391672,-31.04444 13.758334,2.46944 26.458335,8.81944 38.805562,15.16944 0.35277,-2.46944 -1.058338,-3.88055 -2.469449,-5.29167 -13.052778,-12.34722 -29.633335,-17.63889 -46.213892,-22.57777 15.522224,1.41111 29.633336,9.525 44.450003,14.46389 -11.994445,-17.99167 -35.630558,-22.57778 -54.327781,-31.04445 20.461112,3.52778 39.158336,13.05278 58.913889,19.40278 0,-0.70556 0,-1.76389 -0.35277,-2.46945 -13.405561,-13.75833 -31.750006,-18.34444 -48.330563,-25.75278 14.46389,-0.70555 27.516669,6.35 39.863892,12.34723 -10.230557,-15.52223 -27.163891,-25.04723 -39.863892,-38.45278 12.679187,9.4368 26.836513,16.16075 39.795805,25.1213 -0.880886,-0.93839 -1.759302,-1.86619 -2.652889,-2.7693 -0.728486,-0.74789 -1.452739,-1.48872 -2.172405,-2.22603 -0.73025,-0.72672 -1.456267,-1.45344 -2.177345,-2.16958 -5.780617,-5.74675 -11.491031,-11.00667 -16.896293,-15.86089 -5.411964,-4.84717 -10.541353,-9.27453 -15.262578,-13.2715 -9.446331,-7.98689 -17.25154,-14.27692 -22.625052,-18.64784 -5.004506,-4.06753 -7.907514,-6.46642 -8.156928,-6.9603 -0.03492,0.40216 -0.97155,2.31069 -2.720975,5.53861 -1.929342,3.55953 -4.842228,8.71714 -8.620479,15.19766 -3.7796609,6.48053 -8.4225695,14.28751 -13.8345337,23.1387 -1.3596057,2.20839 -2.7615446,4.48381 -4.2033475,6.82625 -1.446389,2.33892 -2.9418141,4.73781 -4.4880388,7.18608 -1.5367,2.45887 -3.135842,4.96006 -4.769203,7.5177 -0.813506,1.28058 -1.647826,2.57175 -2.492376,3.8735 -0.421922,0.64911 -0.845961,1.30528 -1.272116,1.96144 l -0.160161,0.24695 -0.07161,0.10936 -0.0078,0.0141 -0.03104,0.0564 -0.06032,0.10583 0.19685,0.11994 c 0.540808,0.37395 1.083733,0.74789 1.628422,1.12536 1.089731,0.75495 2.187928,1.51342 3.293887,2.27542 2.2098,1.53458 4.451703,3.09033 6.7242974,4.66725 4.5455419,3.15384 9.19444776,6.42056 13.9456592,9.76489 9.4879584,6.70631 19.3456294,13.78656 29.3429994,21.27603 11.484681,8.59014 22.418676,17.20145 32.401582,25.8692 11.481859,9.53911 23.427974,18.61255 34.382071,28.6773"
           style="fill:#ffffff;fill-opacity:1;fill-rule:nonzero;stroke:none;stroke-width:0.0352778"
           id="path68" />
        <path
           d="m 129.22926,432.17738 c -0.003,-6.93913 0.12453,-16.97214 0.4064,-29.36875 0.14287,-6.1983 0.32067,-12.98575 0.56091,-20.27766 0.12453,-3.6442 0.25436,-7.41539 0.43251,-11.30653 0.16792,-3.88409 0.36442,-7.81403 0.27587,-11.85687 -0.12065,-8.06802 -1.06574,-16.50647 -3.33269,-24.96255 -0.13864,-0.52917 -0.27764,-1.05834 -0.41663,-1.59103 l -0.2092,-0.79728 c -0.0769,-0.26458 -0.16439,-0.52564 -0.24659,-0.79022 -0.33232,-1.05128 -0.6664,-2.10961 -1.00154,-3.16794 -0.31079,-1.06892 -0.72742,-2.10962 -1.11407,-3.16442 -0.39158,-1.05128 -0.78458,-2.10609 -1.17898,-3.16795 -0.44662,-1.04069 -0.89465,-2.08491 -1.34408,-3.13266 -0.45791,-1.04423 -0.87242,-2.10961 -1.40089,-3.13267 -0.50376,-1.03364 -1.00929,-2.07081 -1.51623,-3.10797 -0.25577,-0.52211 -0.50201,-1.04422 -0.76588,-1.56281 -0.2794,-0.508 -0.55916,-1.01953 -0.83926,-1.52753 -1.13242,-2.03905 -2.18828,-4.1028 -3.43077,-6.04661 -1.21144,-1.96144 -2.34632,-3.95111 -3.65513,-5.81378 -0.63429,-0.94544 -1.26576,-1.88736 -1.89512,-2.82575 -0.31468,-0.46919 -0.62865,-0.93838 -0.94156,-1.40405 -0.32915,-0.45156 -0.65723,-0.90311 -0.98496,-1.35467 -1.28834,-1.81328 -2.67441,-3.54542 -4.03543,-5.27403 -2.770359,-3.41841 -5.655023,-6.66397 -8.531221,-9.80016 -0.572558,-0.60325 -1.138766,-1.2065 -1.703917,-1.80623 -12.959292,-8.96055 -27.116618,-15.6845 -39.795805,-25.1213 12.700001,13.40555 29.633335,22.93055 39.863892,38.45278 -12.347223,-5.99723 -25.400002,-13.05278 -39.863892,-12.34723 16.580557,7.40834 34.925002,11.99445 48.330563,25.75278 0.35277,0.70556 0.35277,1.76389 0.35277,2.46945 -19.755553,-6.35 -38.452777,-15.875 -58.913889,-19.40278 18.697223,8.46667 42.333336,13.05278 54.327781,31.04445 -14.816667,-4.93889 -28.927779,-13.05278 -44.450003,-14.46389 16.580557,4.93888 33.161114,10.23055 46.213892,22.57777 1.411111,1.41112 2.822219,2.82223 2.469449,5.29167 -12.347227,-6.35 -25.047228,-12.7 -38.805562,-15.16944 16.933334,5.29166 33.513891,15.875 43.391672,31.04444 -11.994448,-7.76111 -25.400004,-13.05278 -38.452783,-18.69722 15.169445,8.81944 33.866673,17.28611 41.275003,34.21945 -11.641668,-8.11389 -24.694446,-14.11112 -35.983336,-22.57778 12.347223,10.93611 25.400002,24.34166 29.280556,40.56944 -10.954102,-10.06475 -22.900217,-19.13819 -34.382076,-28.6773 4.899026,4.2545 9.572979,8.51958 13.962946,12.8023 1.652058,1.64395 3.321755,3.22086 4.866922,4.8895 0.783167,0.82198 1.561395,1.64042 2.333978,2.45181 0.386292,0.40569 0.77082,0.80786 1.154289,1.21003 0.370417,0.41627 0.739069,0.83255 1.106664,1.2453 0.733072,0.82903 1.460853,1.651 2.182636,2.46592 0.718961,0.81844 1.452034,1.61219 2.115256,2.45533 1.354314,1.65806 2.687108,3.28789 3.997325,4.89303 0.324203,0.4057 0.6604,0.79728 0.970139,1.2065 0.309031,0.40922 0.616651,0.81845 0.922871,1.22414 0.61207,0.81492 1.21849,1.61925 1.81962,2.42006 0.60043,0.79727 1.19521,1.59102 1.784,2.37419 0.58561,0.78669 1.12007,1.59808 1.67358,2.38478 1.08938,1.5875 2.17946,3.12208 3.20146,4.65666 0.99024,1.55576 1.95827,3.07976 2.90406,4.56495 0.23601,0.37042 0.47061,0.74083 0.7038,1.10772 0.22048,0.37747 0.43956,0.74789 0.65722,1.11831 0.43356,0.74436 0.86184,1.47814 1.28411,2.20133 0.42192,0.7232 0.83856,1.43581 1.24919,2.14136 0.4131,0.70556 0.77293,1.42522 1.15358,2.1202 0.74295,1.40405 1.48555,2.75519 2.16429,4.08516 0.65511,1.34409 1.28976,2.64584 1.90289,3.90173 2.36961,5.06941 4.1783,9.54264 5.44936,13.2715 1.26541,3.72886 2.06516,6.68161 2.4966,8.71361 0.0205,0.0988 0.0395,0.1905 0.0582,0.28575 -0.0677,-1.82739 -0.10266,-4.49439 -0.10477,-7.91634"
           style="fill:#ccccc9;fill-opacity:1;fill-rule:nonzero;stroke:none;stroke-width:0.0352778"
           id="path70" />
        <g
           id="g72"
           transform="matrix(0.03713621,0,0,-0.03713621,-220.48502,512.28264)">
          <path
             d="m 11869.7,1269.52 c -522.7,31.07 -931.8,54.34 -1210.3,68.68 -139.3,7.22 -246,12.26 -317.8,14.82 -71.8,2.66 -108.9,2.85 -109.1,0.67 -3.9,-0.1 -4.6,-27.93 -16.4,-75.43 -6,-23.56 -15.1,-51.96 -31.3,-81.6 -16.3,-29.26 -40,-59.94 -74.5,-82.46 -34.4,-22.42 -78.4,-37.33 -127.98,-40.37 -12.35,-1.33 -25.08,-0.86 -38,-1.23 -13.58,0.28 -27.36,0.47 -41.41,0.66 -28.03,0.38 -56.81,0.76 -86.36,1.14 -118.36,1.33 -248.41,2.09 -384.92,2.09 -136.52,0 -266.58,-0.76 -384.87,-2.09 -59.15,-0.85 -115.35,-1.71 -167.96,-2.47 -13.15,-0.28 -26.08,-0.47 -38.77,-0.76 -6.33,-0.1 -12.6,-0.19 -18.82,-0.38 -5.92,0 -11.79,0.1 -17.6,0.1 -23.19,0.57 -45.24,2.94 -65.67,7.41 -41,8.83 -74.7,27.07 -99.08,49.11 -24.54,22.13 -39.95,47.31 -50.11,68.96 -10.21,21.66 -15.25,40.09 -18.82,52.54 -3.42,12.54 -5.19,19.28 -7.05,19.28 -0.06,2.28 -37.42,3.42 -109.91,3.51 -72.49,0.1 -180.11,-0.75 -320.71,-2.65 -281.19,-3.81 -694.29,-11.5 -1222.01,-22.71 -527.7,-12.06 -1170.04,-26.79 -1909.75,-43.6 -717.4,-17.76 -1529.23,-37.91 -2418.74,-59.94 471.77,873.19 989.48,1831.32 1542.08,2854.14 50.53,8.83 101.28,17.76 152.12,26.6 -23.47,-50.44 -48.01,-103.36 -73.72,-158.65 -17.96,-38.94 -36.48,-78.94 -55.5,-120.07 -10.45,-22.8 -21.07,-45.98 -31.79,-69.35 -13.23,-12.44 -26.38,-24.69 -39.64,-37.14 -87.74,-158.64 -176.27,-318.61 -265.48,-479.92 -371.42,-673.23 -731.22,-1325.37 -1073.11,-1945.03 459.85,16.53 904.49,32.39 1330.51,47.69 396.84,14.82 776.34,28.88 1135.37,42.27 718.05,27.36 1354.16,52.63 1883.15,74.95 529,22.23 950.87,41.51 1240.45,56.71 144.78,7.7 256.5,14.25 331.99,19.76 75.48,5.51 114.75,9.79 114.65,12.92 -0.11,3.14 -39.58,4.75 -115.26,5.23 -75.69,0.38 -187.6,-0.48 -332.57,-2.57 -289.95,-4.27 -712.16,-13.3 -1241.46,-26.5 -529.3,-13.21 -1165.67,-30.59 -1883.93,-51.49 -690.68,-20.99 -1460.11,-44.36 -2284.1,-69.35 17.58,31.73 35.25,63.56 52.94,95.47 298.96,539.58 612.31,1105.18 935.23,1688.07 86.4,156.37 172.13,311.5 257.11,465.29 1.92,1.81 3.82,3.52 5.74,5.42 7.95,0.76 15.89,1.61 23.88,2.47 11.76,1.14 23.57,2.28 35.44,3.42 35.18,3.13 70.97,6.27 107.34,9.49 72.82,6.09 148.06,11.79 225.6,17.11 155.11,10.44 319.43,19.66 492.12,26.31 345.32,13.3 724.22,17.95 1128.71,2.47 202.21,-7.79 410.76,-20.99 624.23,-41.99 213.36,-21.37 431.78,-50.16 652.39,-92.33 110.35,-20.9 221.17,-45.22 331.84,-74.1 110.67,-28.78 221.27,-61.84 330.62,-100.7 109.31,-38.85 217.43,-83.59 322.03,-136.41 104.52,-52.91 205.58,-114 298.73,-185.81 13.65,-10.73 27.56,-21.18 40.99,-32.2 l 39.12,-34.01 c 6.44,-5.7 13.21,-11.11 19.37,-17.1 l 18.43,-18.05 c 12.18,-12.07 24.84,-23.75 36.59,-36.19 l 34.38,-37.91 c 6.16,-6.84 12.78,-13.77 18.16,-20.99 2.85,-3.7 5.63,-6.94 8.54,-11.02 l 8.68,-11.97 34.7,-48.16 34.66,-48.17 c 11.59,-16.05 23.19,-32.01 33.91,-47.87 21.9,-31.83 43.77,-63.55 65.6,-95.19 -0.02,0.86 -0.05,1.71 -0.08,2.57 6.07,-11.4 12.17,-22.8 18.11,-33.92 67.97,-132.14 121.63,-248.6 161.4,-345.49 39.06,-95.57 66.49,-171.28 84.68,-223.44 1.08,-10.35 2.16,-20.7 3.23,-30.96 0.85,-7.6 1.68,-15.11 2.5,-22.52 0.17,-1.9 0.51,-3.89 0.54,-5.6 l -5.44,-0.19 c -3.67,-0.1 -7.32,-0.29 -10.95,-0.38 -2.22,0 -4.4,-0.29 -6.61,-0.48 -1.47,-0.19 -2.93,-0.38 -4.45,-0.48 -5.83,-0.56 -11.61,-1.13 -17.36,-1.7 -12.97,-2.19 -25.89,-3.8 -38.41,-6.46 -50.23,-10.26 -96.03,-26.7 -137.35,-45.79 -82.65,-38.38 -147.91,-85.88 -200.73,-129.95 -52.71,-44.56 -93.25,-86.35 -124.35,-121.31 -61.97,-70.3 -87.07,-112.77 -84.49,-114.57 2.96,-2.28 33.25,35.91 99.04,100.7 32.98,32.29 75.05,71.05 128.37,112 53.38,40.66 118.38,83.88 197.86,117.51 39.71,16.71 83.08,30.68 129.64,38.76 11.62,2.09 23.52,3.13 35.46,4.84 6.82,0.47 13.68,0.95 20.57,1.42 8.81,0.67 18.59,0.67 27.64,0.86 5.84,0.09 11.74,0.19 17.63,0.28 2.75,-0.19 5.57,-0.19 8.29,-0.38 5.45,-0.28 10.95,-0.47 16.26,-0.95 5.19,-0.56 10.54,-1.04 15.46,-1.8 l 12.81,-1.81 c 3.43,-0.56 6.85,-1.32 10.26,-1.9 6.82,-1.32 13.6,-2.66 20.35,-3.89 13.2,-3.52 26.5,-6.27 39.23,-10.16 12.73,-4.09 25.45,-7.61 37.62,-12.07 49.11,-16.91 92.05,-40.37 131.19,-63.17 9.49,-6.27 18.81,-12.35 27.92,-18.43 9.03,-6.08 18.24,-11.68 26.22,-18.43 8.36,-6.46 16.43,-12.83 24.42,-19 7.78,-6.27 15.96,-11.87 22.79,-18.71 14.25,-13.02 27.84,-25.46 40.76,-37.24 12.35,-12.44 23.27,-24.89 34.1,-36.29 5.42,-5.79 10.64,-11.31 15.68,-16.72 5.12,-5.32 9.21,-11.3 13.58,-16.62 8.74,-10.83 16.81,-21 24.32,-30.31 15.67,-18.23 26.31,-35.43 35.81,-48.63 18.78,-26.6 29.48,-39.81 31.18,-38.86 1.7,0.95 -5.4,16.25 -21.11,45.12 -8.07,14.44 -17.19,32.87 -31.63,52.63 -6.94,10.07 -14.35,20.9 -22.42,32.59 -4.18,5.79 -7.88,12.16 -12.82,17.86 -4.85,5.88 -9.79,11.87 -14.92,18.14 -10.45,12.25 -20.99,25.74 -33.06,39.14 -12.73,12.92 -26.03,26.41 -40.09,40.56 -6.74,7.41 -14.91,13.59 -22.8,20.52 -7.97,6.74 -16.15,13.68 -24.41,20.8 -8.17,7.41 -17.38,13.68 -26.6,20.33 -9.31,6.65 -18.71,13.49 -28.4,20.43 -40,25.45 -84.36,51.67 -135.84,71.34 -12.74,5.22 -26.13,9.31 -39.52,14.15 -13.4,4.56 -27.55,7.98 -41.61,12.07 -7.22,1.61 -14.44,3.23 -21.76,4.84 -3.63,0.86 -7.27,1.71 -10.99,2.38 l -8.8,1.52 c -8.67,1.61 -17.12,2.75 -25.68,3.32 0.97,6.75 1.95,13.68 2.93,20.52 10.02,15.58 22.49,35.53 37.41,59.94 41.71,66.97 101.37,167.29 181.64,294.96 40.56,63.56 85.4,134.52 137.55,210.23 15.87,23.18 32.3,46.93 49.4,71.06 38.85,54.81 81.12,111.71 127.96,169.66 67.47,83.4 143.87,169.09 232.97,251.74 89,82.74 191.7,160.82 307.4,230.74 115.4,70.39 245,130.43 384.5,182.3 139.6,51.96 289.5,95.66 447.2,133.56 157.9,37.71 323.4,70.11 495.4,99.36 171.1,28.98 349.3,49.88 533.4,62.8 368.3,25.84 759.6,18.24 1165.5,-19.1 101.5,-9.69 203.9,-20.9 307.2,-34.29 103,-13.58 207.1,-28.88 311.6,-46.26 104.6,-17.48 209.9,-37.05 315.5,-58.8 52.7,-11.12 105.8,-22.42 158.7,-34.77 l 39.6,-9.31 23.9,-5.7 39.5,-9.88 c 10.4,-2.57 20.8,-5.32 31.4,-7.98 l 4.5,-9.79 c 10.9,-23.17 21.8,-46.45 32.7,-69.72 43.6,-93.19 87.4,-186.76 131.4,-280.71 311.6,-663.93 613.3,-1306.57 899.3,-1916.06 l -2.8,0.47 -0.8,0.19 -12.1,2.66 -39.5,8.74 c -52.5,11.59 -104.8,23.08 -156.9,34.58 -104.2,22.51 -207.5,44.74 -309.8,66.88 -102.4,21.56 -203.8,42.84 -304.2,63.93 -100.5,20.99 -200,41.23 -298.5,61.08 -394,79.32 -771.6,150.85 -1130.6,210.32 -44.8,7.79 -89.5,14.72 -133.8,21.56 -44.3,6.84 -88.3,13.59 -132,20.43 -43.6,7.03 -87.2,12.63 -130.3,18.52 -43.1,5.89 -86,11.69 -128.4,17.48 -42.5,5.7 -85.1,9.6 -127,14.35 -21,2.27 -41.9,4.56 -62.7,6.83 -20.8,2.38 -41.6,4.75 -62.5,5.8 -5.4,0.38 -10.6,0.76 -16,1.14 -36.2,2.47 -72.2,4.94 -107.8,7.41 -10.3,0.66 -20.4,1.33 -30.6,2 -10.1,0.38 -20.2,0.75 -30.2,1.14 -20.2,0.75 -40.1,1.51 -60.1,2.27 -318.5,12.16 -614.1,15.96 -882.4,8.27 -536.7,-16.15 -962.4,-84.45 -1246.5,-158.64 -35.6,-9.12 -69.2,-17.77 -100.6,-25.75 -31.1,-9.4 -60.1,-18.05 -87.1,-26.12 -26.9,-8.17 -51.7,-15.77 -74.3,-22.61 -22.5,-7.6 -42.7,-15.01 -60.6,-21.37 -72.1,-26.03 -109,-40.85 -108,-43.8 0.9,-2.94 39.8,6.27 113.3,26.51 18.3,5.13 38.9,10.83 61.6,17.1 22.9,5.6 47.9,11.78 75.1,18.42 27.1,6.75 56.3,14.06 87.6,21.85 31.6,6.75 65.3,13.87 100.9,21.57 284.6,62.98 707.2,120.45 1240.1,127.48 266.4,3.14 559.9,-4.84 877.6,-20.9 19.9,-1.04 39.8,-1.99 59.9,-2.94 9.9,-0.48 20,-1.05 30.1,-1.52 10,-0.76 19.9,-1.52 29.9,-2.38 39.9,-3.13 80.3,-6.36 120.9,-9.69 20.3,-1.23 40.8,-3.89 61.3,-6.36 20.5,-2.47 41.1,-4.94 61.8,-7.51 41.6,-5.13 83.4,-9.4 125.4,-15.48 42.1,-6.17 84.5,-12.35 127.2,-18.62 42.8,-6.36 85.9,-12.25 129.3,-19.76 43.3,-7.12 87,-14.34 131.1,-21.56 44,-7.13 88.4,-14.44 132.9,-22.61 357,-62.41 733.3,-136.6 1126,-218.11 98.1,-20.33 197.4,-41.13 297.5,-62.6 100.2,-21.66 201.4,-43.42 303.5,-65.45 102.1,-22.52 205,-45.22 309,-68.21 51.9,-11.69 104.1,-23.37 156.4,-35.15 86.7,-19.76 173.6,-39.52 260.9,-59.47 -313.4,670.96 -644,1378.39 -985.4,2109.19 -44,93.95 -87.9,187.52 -131.5,280.62 -8.1,17.29 -16.1,34.48 -24.2,51.77 40.8,-1.05 81.7,-2.19 122.3,-3.23 406.2,-874.53 789,-1698.52 1142.2,-2458.87 -882.2,55.67 -1687.1,106.4 -2398.4,151.24 -732.9,44.74 -1369.1,83.59 -1891.9,115.51 z M 4350.05,4063.06 c 58.88,138.21 108.83,256.67 148.95,353.28 40.12,96.61 70.41,171.47 89.97,222.48 5.4,14.06 9.96,26.31 13.72,36.67 20.92,-4.08 41.86,-8.26 62.9,-12.44 33.48,-6.75 67.18,-13.68 101.1,-20.62 67.82,-14.06 136.53,-28.31 206.11,-42.65 74.02,-15.58 149.04,-31.44 224.88,-47.69 66.67,-14.34 133.96,-28.88 201.98,-43.79 41.31,-9.03 82.93,-18.15 124.73,-27.46 252.31,-55.85 513.07,-116.17 780.33,-182.67 0.05,0 0.1,0 0.16,0 155.96,-38.28 313.5,-80.46 472.81,-124.73 158.38,-45.69 319.37,-95.18 480.15,-148.95 160.73,-53.96 320.87,-114.47 476.93,-187.05 156.02,-72.48 307.33,-158.26 450.25,-259.24 146.11,-103.17 280.47,-219.73 405.06,-343.98 -33.36,19 -67.08,37.14 -101.09,54.34 -109.51,55.19 -221.77,101.36 -334.66,141.25 -112.94,39.81 -226.57,73.44 -339.92,102.5 -113.33,29.17 -226.47,53.58 -338.84,74.29 -224.7,41.99 -446.19,69.92 -662.14,90.15 -62.52,5.7 -124.51,10.64 -186.08,15.11 -151.21,10.83 -299.53,18.05 -444.44,22.32 -407.88,11.97 -788.93,2.66 -1135.82,-15.87 -173.46,-9.21 -338.41,-21.27 -494.04,-34.76 -77.82,-6.75 -153.31,-14.06 -226.37,-21.66 -36.52,-3.99 -72.45,-7.98 -107.76,-11.88 l -12.22,-1.42 -4.98,-0.66 -10.06,-1.34 c -6.97,-1.04 -13.88,-1.99 -20.73,-3.04 7.35,18.72 9.16,23.56 31.91,76.19 17.93,41.7 35.36,82.17 52.28,121.59 33.7,78.66 65.38,152.76 94.93,221.73 z m 828.34,1630.69 c 66.31,116.37 129.01,226.56 187.99,330.49 92.96,-65.83 187.91,-132.99 284.8,-201.58 121.24,-86.35 245.72,-174.99 373,-265.51 253.94,-182.02 518.13,-372.96 786.26,-573.78 11.57,-8.64 23.02,-17.29 34.55,-25.93 446.05,-334.77 860.69,-667.54 1209.55,-1000.69 189.5,-179.06 355.31,-362.02 500.14,-540.61 -96.51,88.62 -198.81,172.7 -307.84,249.65 -148.44,104.96 -305.95,193.98 -467.03,268.64 -161.13,74.67 -325.2,136.23 -488.26,190.47 -163.22,54.05 -324.65,103.16 -485.61,148.95 -160.95,43.98 -319.8,85.68 -476.64,123.3 -6.4,1.53 -12.76,3.04 -19.17,4.66 -306.7,74.28 -604.38,140.12 -890.39,200.15 -145.98,30.69 -288.93,59.95 -428.56,87.68 -69.86,13.78 -138.86,27.36 -206.95,40.76 -34.08,6.55 -67.93,13.11 -101.56,19.57 l -25.19,4.75 -5.31,0.95 -9.43,1.52 c 196.92,344.26 376.72,658.7 535.65,936.56 z m 213.4,434.6 0.83,1.52 0.21,0.38 1.93,2.95 4.31,6.65 c 11.48,17.66 22.9,35.34 34.26,52.82 22.74,35.05 45.21,69.82 67.11,104.3 43.99,68.87 87.05,136.22 128.42,202.44 41.64,65.92 81.91,130.52 120.86,193.5 38.83,63.08 76.58,124.35 113.19,183.82 145.73,238.34 270.75,448.57 372.53,623.08 101.74,174.5 180.18,313.38 232.13,409.23 47.11,86.92 72.33,138.32 73.27,149.15 6.72,-13.3 84.89,-77.9 219.65,-187.43 144.7,-117.7 354.88,-287.08 609.25,-502.14 127.13,-107.64 265.25,-226.86 410.98,-357.38 145.56,-130.71 299.33,-272.35 454.99,-427.1 19.41,-19.28 38.96,-38.85 58.63,-58.42 19.38,-19.85 38.88,-39.8 58.5,-59.94 24.06,-24.32 47.71,-49.31 71.43,-74.57 15.22,-16.16 30.47,-32.4 45.89,-48.64 77.44,-84.45 155.12,-171.85 229.72,-263.9 36.65,-46.55 73.98,-93.19 108.67,-142.02 8.82,-12.16 17.66,-24.32 26.52,-36.48 8.43,-12.54 16.88,-25.17 25.35,-37.81 16.95,-25.26 33.96,-50.63 51.04,-76.09 35.24,-50.15 65.8,-103.73 98.42,-156.55 33.46,-52.34 61.89,-107.91 92.39,-162.82 7.54,-13.68 15.07,-27.46 22.59,-41.13 7.11,-13.97 13.74,-28.03 20.63,-42.09 13.65,-27.92 27.26,-55.85 40.83,-83.69 14.23,-27.55 25.39,-56.24 37.72,-84.35 12.1,-28.22 24.17,-56.34 36.19,-84.36 10.62,-28.59 21.21,-57 31.75,-85.31 10.41,-28.4 21.63,-56.42 30,-85.21 9.02,-28.49 18.02,-56.99 26.97,-85.3 2.21,-7.13 4.57,-14.16 6.64,-21.28 l 5.63,-21.47 c 3.74,-14.35 7.49,-28.6 11.22,-42.85 61.04,-227.7 86.5,-454.93 89.74,-672.18 2.39,-108.87 -2.9,-214.69 -7.43,-319.28 -4.79,-104.78 -8.29,-206.33 -11.64,-304.46 -6.47,-196.36 -11.26,-379.13 -15.11,-546.04 -7.59,-333.81 -11.03,-603.98 -10.94,-790.84 0.06,-92.14 1,-163.96 2.82,-213.17 -0.5,2.57 -1.02,5.04 -1.57,7.7 -11.61,54.72 -33.15,134.23 -67.22,234.64 -34.23,100.41 -82.94,220.86 -146.74,357.37 -16.51,33.82 -33.6,68.87 -51.24,105.06 -18.28,35.82 -38.28,72.21 -58.28,110.01 -10.25,18.71 -19.94,38.1 -31.07,57.09 -11.06,19 -22.27,38.19 -33.64,57.67 -11.37,19.47 -22.9,39.23 -34.57,59.27 -5.87,9.98 -11.77,19.95 -17.7,30.12 -6.28,9.88 -12.6,19.85 -18.95,29.83 -25.47,39.99 -51.54,81.03 -78.2,122.92 -27.52,41.32 -56.88,82.65 -86.21,125.4 -14.91,21.18 -29.3,43.03 -45.07,64.21 -15.85,21.09 -31.87,42.46 -48.04,63.93 -16.18,21.57 -32.51,43.23 -49,65.17 -8.24,10.92 -16.52,21.94 -24.85,32.96 -8.34,11.02 -17.39,21.57 -26.12,32.49 -35.28,43.23 -71.17,87.11 -107.64,131.76 -17.86,22.7 -37.6,44.08 -56.96,66.12 -19.44,21.94 -39.03,44.08 -58.77,66.4 -9.9,11.11 -19.83,22.32 -29.8,33.53 -10.33,10.83 -20.68,21.66 -31.08,32.58 -20.81,21.86 -41.76,43.89 -62.86,66.03 -41.6,44.93 -86.56,87.39 -131.05,131.66 -118.21,115.33 -244.07,230.18 -375.99,344.74 -268.82,233.41 -563.25,465.29 -872.51,696.6 -269.21,201.68 -534.65,392.33 -790.14,572.92 -127.94,90.06 -253.13,178.02 -375.53,262.95 -61.19,42.46 -121.56,84.36 -181.07,125.68 -29.78,20.52 -59.35,40.94 -88.7,61.27 -14.66,10.17 -29.28,20.23 -43.85,30.3 l -5.3,3.23 z m 4111.95,-3183.3 c 8.64,166.63 18.05,349.11 28.21,545.09 5.22,97.84 10.54,199.2 17,303.22 6.08,104.02 13.11,213.27 12.07,325.17 -0.1,25.08 -0.48,50.35 -1.14,75.81 2.66,10.35 5.32,20.9 8.36,31.35 3.89,12.91 7.79,25.84 11.77,38.85 8.84,25.84 17.2,51.96 27.55,77.8 4.95,12.92 9.89,25.93 14.92,38.95 5.51,12.83 11.02,25.74 16.53,38.66 44.46,103.26 98.98,205.19 160.63,305.13 15.96,24.7 31.92,49.49 47.98,74.38 16.34,24.79 34.29,48.64 51.39,73.15 8.65,12.16 17.39,24.32 26.03,36.57 9.03,12.06 18.53,23.75 27.74,35.72 18.71,23.65 37.33,47.5 56.12,71.44 19.5,23.36 39.8,46.16 59.8,69.44 20.1,23.08 39.6,46.83 61.4,68.77 43.1,44.37 84.6,90.73 130.9,132.81 22.7,21.56 45.4,43.03 67.9,64.5 11,11.02 23.3,20.71 34.9,30.97 11.8,10.16 23.6,20.33 35.4,30.49 23.4,20.33 46.8,40.56 70.2,60.71 11.5,10.16 23.5,19.85 35.6,29.54 12.1,9.69 24,19.38 36,29.07 23.9,19.37 47.8,38.66 71.5,57.85 23.8,19.19 47.2,38.57 71.5,56.9 47.9,37.24 95.6,74.1 142.8,110.67 23.6,18.43 47.2,36.38 71.1,54.15 23.6,17.76 47.2,35.53 70.7,53.1 47.1,35.15 93.2,70.58 139.7,104.5 46.4,34.1 92.2,67.92 137.7,101.26 22.7,16.72 45.3,33.25 67.7,49.78 22.5,16.34 45,32.58 67.2,48.64 174.4,126.34 340.9,245.47 497.5,356.7 163.7,116.28 316.7,224 455.9,322.04 272.6,191.79 493.4,346.64 645,455.31 138.7,99.46 219.2,160.07 228.8,174.41 -1.2,-18.24 25.6,-120.92 75.6,-293.15 54.6,-188.47 137.1,-460.16 241.1,-795.21 52.4,-167.38 109.9,-350.72 171.6,-547.46 3.9,-12.35 7.8,-24.7 11.6,-37.05 l 1,-3.42 0.4,-1.52 c 0,-0.47 -0.7,-0.75 -1,-1.23 -4.5,-5.04 -9.2,-10.07 -13.8,-15.11 -8.7,-9.59 -17.4,-19.18 -26.5,-28.59 -9,-9.5 -18,-19 -27.1,-28.59 -9.3,-9.41 -18.6,-18.91 -28,-28.31 -18.6,-19.19 -38.1,-37.71 -57.5,-56.62 -78.5,-75.14 -161.8,-149.9 -250,-223.43 -176.3,-147.43 -371.2,-290.78 -580.1,-429 -209.1,-138.41 -432.4,-269.5 -667,-397.36 -234.3,-128.35 -465.2,-252.5 -683.1,-382.84 -109.1,-64.78 -214.6,-131.85 -316.1,-200.25 -25.3,-17.29 -50.7,-34.01 -75.4,-51.58 -24.7,-17.58 -49.2,-35.05 -73.7,-52.44 -24.4,-17.48 -48,-35.71 -71.8,-53.29 -11.8,-8.93 -23.7,-17.77 -35.5,-26.6 -11.6,-9.12 -23.1,-18.24 -34.6,-27.26 -6.9,-5.32 -13.7,-10.64 -20.4,-16.06 -85,-66.68 -164.7,-136.32 -241,-205.28 -40.2,-38.48 -80.8,-75.05 -118.3,-113.9 -19,-19.1 -37.8,-38.1 -56.5,-56.9 -18,-19.48 -36,-38.67 -53.7,-57.76 -141.6,-153.23 -260.7,-307.31 -359.63,-454.08 -98.98,-146.86 -178.02,-286.13 -243.18,-410.38 -15.49,-31.45 -30.4,-61.84 -44.75,-91.1 -14.44,-29.17 -28.3,-57.28 -40.08,-84.83 -12.16,-27.46 -23.85,-53.67 -34.87,-78.75 -5.51,-12.54 -10.92,-24.7 -16.15,-36.67 -4.84,-12.07 -9.5,-23.75 -14.05,-35.25 -18.25,-45.78 -34.15,-86.53 -47.7,-121.88 -12.49,-35.81 -22.66,-66.3 -30.59,-91 -3.2,-9.98 -6,-18.9 -8.45,-27.08 3.76,31.16 7.9,76.48 12.39,134.61 2.4,31.16 4.93,65.93 7.54,104.4 12.73,186.29 27.72,456.08 44.96,789.32 z m 4058.36,3677.28 35.6,12.44 c 0.4,0.19 0.3,0.19 0.3,0.19 0.1,-0.19 -0.1,0.19 0.2,-0.47 l 18.5,-42.09 c 49.4,-112.56 98.9,-225.8 148.9,-339.7 100,-227.8 198.9,-452.84 296.3,-674.75 48.1,-109.25 95.9,-217.73 143.2,-325.36 0.1,-0.1 0.2,-0.29 0.2,-0.48 l -0.5,-0.38 c -25,-13.77 -50.1,-27.64 -75,-41.41 -51.6,-28.22 -103.3,-56.05 -155,-83.41 -413.4,-219.15 -819.7,-417.6 -1208.3,-603.03 -37.4,-17.96 -74.5,-35.53 -111.7,-53.01 -59.3,-27.93 -118.3,-55.48 -176.8,-83.12 -95.1,-44.17 -189,-87.78 -281.5,-130.71 -185.7,-84.93 -366.1,-167.39 -540.5,-247.09 -174.3,-80.55 -341.9,-160.16 -501.4,-240.91 -159.4,-80.74 -310.8,-162.44 -450.9,-248.79 -139.7,-86.64 -268.6,-177.55 -381.6,-274.92 -36.6,-31.72 -71.6,-64.02 -105,-96.7 168.3,193.03 371.3,388.72 611.5,570.83 11.4,8.74 22.8,17.48 34.2,26.31 11.7,8.55 23.4,17.1 35.2,25.65 23.4,17 46.7,34.67 70.8,51.49 24.2,16.81 48.4,33.72 72.8,50.72 24.3,17.1 49.6,33.25 74.5,50.07 100.4,66.3 204.6,131.66 312.9,195.02 215.9,127.68 445.8,250.31 680.9,379.23 196.2,106.87 386.7,217.91 566.9,333.81 36,23.18 71.7,46.45 106.8,70.01 211.2,141.54 408,288.79 585.6,441.07 89,75.9 173.1,153.32 252.2,231.41 19.6,19.75 39.3,39.04 58.1,58.99 9.5,9.97 19,19.85 28.4,29.63 9.3,10.07 18.5,20.15 27.6,30.12 9.2,9.88 18.2,20.14 27.1,30.3 l 6.7,7.6 3.3,3.8 5.1,6.08 c 7.6,9.02 15.1,17.96 22.7,26.98 l 5.7,6.94 2.8,3.51 1.5,1.71 c 0.1,0.67 -0.4,1.42 -0.6,2.09 l -5.4,17.1 c -3.7,11.3 -7.4,22.51 -11.1,33.72 -4.1,12.35 -8.3,24.61 -12.4,36.86 -66.1,195.31 -127.8,377.32 -184,543.47 -23.4,68.68 -46,134.42 -67.6,197.5 10.9,3.89 21.9,7.69 32.8,11.68 z m 1171.2,-3054.49 -2,0.38 -0.5,0.1 -16.2,3.8 -40.4,9.31 c -53.7,12.35 -107.5,23.65 -161.1,34.67 -107,21.75 -213.6,41.04 -319.5,58.33 -106,17.1 -211.2,32.01 -315.6,45.31 -104.5,13.01 -208.1,23.85 -310.9,33.06 -93.7,8.07 -186.6,14.53 -278.7,19.38 -311.9,16.53 -614,14.34 -902.4,-8.36 -186.8,-14.72 -367.7,-37.62 -541.7,-68.87 -173,-31.26 -339.9,-65.83 -499.6,-106.02 -159.5,-40.37 -311.9,-86.92 -454.3,-142.21 -142.5,-55.28 -275.3,-119.31 -393.6,-194.17 -118.4,-74.38 -223.4,-157.21 -313.3,-244.23 -72.3,-69.82 -135.6,-141.17 -192.25,-211.37 26.85,35.82 55.25,71.92 85.45,108.11 81.9,98.32 178.4,195.5 289.5,288.22 111.3,92.52 238.3,179.06 376.8,262.18 138.8,82.65 289.5,161.4 448.5,239.58 159.1,78.09 326.9,155.42 501.4,233.98 175.1,78.18 356.1,158.92 542.6,242.23 93.1,42.37 187.5,85.31 283.2,128.82 23.9,11.11 47.9,22.13 72,33.25 72,33.25 144.8,66.68 217.9,101.17 390.8,183.43 798.9,380.46 1215.3,599.61 18,9.4 35.9,19 54,28.5 225.2,-513.55 444.5,-1013.89 655.4,-1494.76 z m 348.3,-9.31 c -77.2,2.19 -154.9,4.37 -232.8,6.56 -218.4,500.15 -444.5,1017.87 -676.2,1548.43 2.5,1.33 5.1,2.75 7.8,4.18 l 39.2,21.27 41.5,23.09 c 25.7,14.44 51.2,28.97 76.9,43.51 2.2,0.76 2.9,1.9 1.4,3.89 l -2.2,5.03 -4.4,10.17 -8.7,20.23 -17.8,40.76 c -48.5,110.86 -97.3,222.57 -146.6,335.24 -97.3,221.91 -196,447.05 -295.9,674.94 -49.9,113.9 -99.6,227.04 -149,339.61 -18.4,41.99 -36.9,83.97 -55.3,125.87 l -2.3,5.22 c -0.4,2.66 -2,2.47 -4,1.33 l -10.8,-3.8 -21.7,-7.59 -42.7,-15.2 -50.9,-17.96 c -10.8,-3.9 -21.8,-7.79 -32.7,-11.59 -67.8,196.45 -125.6,360.61 -171.1,486 -66.9,184.48 -107.1,285.46 -114.2,283.18 -4.1,6.17 -94.1,-44.55 -252.9,-142.59 -158.8,-98.04 -386.3,-243.47 -664.6,-427.48 -278.3,-184.01 -607.6,-406.3 -968.2,-660.98 -22.5,-15.86 -45.2,-31.92 -68,-47.97 -22.7,-16.34 -45.5,-32.77 -68.5,-49.21 -45.9,-33.06 -92.3,-66.49 -139.2,-100.22 -47,-33.72 -93.7,-68.97 -141.2,-103.83 -23.7,-17.57 -47.6,-35.24 -71.5,-53.01 -24,-17.57 -48,-35.52 -71.8,-53.96 -47.8,-36.57 -96,-73.52 -144.6,-110.76 -24.4,-18.33 -48.3,-37.9 -72.5,-57.28 -24.1,-19.38 -48.2,-38.76 -72.6,-58.33 -12.1,-9.69 -24.3,-19.47 -36.4,-29.26 -12.3,-9.78 -24.5,-19.57 -36.3,-30.02 -24,-20.61 -48,-41.22 -72,-61.93 -12.1,-10.45 -24.2,-20.81 -36.2,-31.16 -12,-10.54 -24.5,-20.43 -35.9,-31.83 -23.3,-22.03 -46.7,-44.26 -70,-66.49 -47.9,-43.51 -90.9,-91.39 -135.1,-137.36 -22.5,-22.61 -42.8,-47.31 -63.58,-71.25 -20.61,-24.13 -41.6,-47.88 -61.65,-72.1 -19.47,-24.89 -38.76,-49.69 -57.95,-74.29 -9.59,-12.44 -19.37,-24.6 -28.69,-37.14 -8.93,-12.73 -17.95,-25.46 -26.88,-38.19 -17.76,-25.55 -36.19,-50.35 -53.01,-76.19 -16.62,-26.03 -33.15,-51.96 -49.58,-77.71 -63.65,-104.58 -119.8,-211.36 -165.58,-320.41 -0.95,-2.47 -2,-4.85 -2.95,-7.22 -13.87,119.98 -35.72,241.76 -67.57,363.45 -3.8,14.82 -7.61,29.64 -11.42,44.55 l -5.73,22.33 c -2.12,7.41 -4.52,14.72 -6.77,22.13 -9.14,29.45 -18.33,58.99 -27.55,88.73 -8.6,29.92 -20.05,58.89 -30.73,88.34 -10.83,29.35 -21.7,58.9 -32.63,88.44 -12.34,29.07 -24.73,58.14 -37.16,87.4 -12.67,29.07 -24.23,58.8 -38.82,87.2 -13.96,28.69 -27.96,57.57 -42.01,86.45 -7.09,14.44 -13.94,28.97 -21.26,43.32 -7.74,14.15 -15.48,28.21 -23.23,42.37 -31.34,56.52 -60.75,113.71 -95.09,167.28 -33.52,54.15 -65.11,109.15 -101.27,160.36 -17.56,26.03 -35.07,51.86 -52.5,77.7 -8.71,12.83 -17.42,25.74 -26.11,38.57 -9.22,12.63 -18.42,25.17 -27.62,37.62 -36.29,50.63 -74.87,98.42 -112.87,145.91 -77.12,94.14 -156.92,182.49 -236.43,267.6 -40.41,41.9 -79.81,83.89 -120.22,123.88 -20.08,20.14 -40.05,40.09 -59.91,60.04 -20.11,19.56 -40.1,39.04 -59.98,58.42 -159.28,154.46 -316.41,294.58 -465.44,423.2 -149.18,128.53 -290.8,244.81 -421.53,349.11 -261.58,208.52 -479.41,369.15 -632.2,476.88 -152.87,107.72 -240.93,162.35 -245.24,156.36 -4.51,2.66 -38.63,-44.93 -98.76,-135.84 -60.13,-90.82 -146.24,-224.86 -254.93,-394.99 -108.85,-169.95 -240.62,-375.71 -391.05,-610.64 -37.85,-58.51 -76.86,-118.83 -116.99,-180.96 -40.33,-61.94 -81.77,-125.59 -124.26,-190.85 -42.78,-64.97 -86.6,-131.66 -131.41,-199.77 -53.59,-80.56 -108.34,-162.92 -164.2,-246.9 18.56,-13.2 37.39,-26.5 56.12,-39.8 -62.13,-103.92 -128.02,-214.5 -197.56,-331.34 -86.34,-145.53 -178.35,-300.57 -275.53,-464.34 -106.7,-180.78 -219.08,-371.15 -336.56,-570.16 27.91,-5.51 55.93,-11.02 84.04,-16.63 -4.89,-9.12 -10.47,-19.85 -16.71,-32.01 -24.88,-48.64 -60.33,-121.22 -105.44,-215.64 -39.31,-82.27 -85.96,-181.16 -139.32,-295.34 -90.13,-16.06 -179.95,-32.11 -269.32,-47.98 C 3476.41,2999.39 2931,1980.28 2434,1051.6 c 944.58,29.74 1806.67,56.9 2568.48,80.94 739.49,24.89 1381.63,46.45 1909.17,64.21 527.51,18.62 940.38,34.2 1221.35,46.36 140.48,5.99 247.98,11.21 320.35,15.39 66.34,3.8 103.05,6.94 108.68,9.12 -1.53,-1.9 -2.85,-8.64 -2.82,-20.14 0.22,-13.58 2.09,-33.72 10.08,-58.7 7.97,-24.8 22.24,-54.82 48.57,-82.75 26.03,-27.92 64.68,-52.05 110.77,-64.4 22.97,-6.46 47.56,-10.26 73.13,-12.07 6.4,-0.28 12.86,-0.66 19.37,-0.95 6.25,-0.09 12.54,-0.28 18.9,-0.38 12.69,-0.28 25.62,-0.47 38.77,-0.76 52.61,-0.76 108.81,-1.61 167.96,-2.47 118.29,-1.33 248.35,-2.09 384.87,-2.09 136.51,0 266.56,0.76 384.92,2.09 29.55,0.38 58.33,0.76 86.36,1.14 14.05,0.19 27.83,0.38 41.41,0.67 14.25,0.76 28.31,0.76 42.18,2.75 55.3,5.42 106.7,24.89 145.6,53.58 39.3,28.97 64.2,66.31 79.5,100.22 15.3,34.2 22,65.64 25,91.1 5.3,46.74 0.4,74.29 -3.1,78.56 6,-2.47 42.2,-6.84 107.2,-13.11 71.6,-6.93 178,-16.15 316.9,-27.45 278,-22.61 686.7,-53.77 1208.9,-92.24 522.3,-37.62 1158.1,-83.31 1890.5,-136.04 754.1,-52.72 1607.6,-112.279 2543,-177.544 -376.8,820.004 -785,1708.594 -1218.4,2651.894"
             style="fill:#593117;fill-opacity:1;fill-rule:nonzero;stroke:none"
             id="path74" />
        </g>
      </g>
      <text
         xml:space="preserve"
         id="text4924"
         style="font-style:normal;font-weight:normal;font-size:50.8px;line-height:1.25;font-family:sans-serif;white-space:pre;shape-inside:url(#rect4926);fill:#000000;fill-opacity:1;stroke:none;"
         transform="translate(-108.58386,-45.365679)"><tspan
           x="51.103516"
           y="436.26055"><tspan
             style="font-style:normal;font-variant:normal;font-weight:normal;font-stretch:normal;font-size:50.8px;font-family:'Tibetan Machine Uni';-inkscape-font-specification:'Tibetan Machine Uni';fill:#ffffff">Proud Papers</tspan></tspan></text>
    </g>
  </g>
</svg>
